<?xml version="1.0" encoding="UTF-8" standalone="no"?>
<!-- Created with Inkscape (http://www.inkscape.org/) -->

<svg
   width="134.85207mm"
   height="134.50136mm"
   viewBox="0 0 134.85207 134.50136"
   version="1.1"
   id="svg1"
   xml:space="preserve"
   inkscape:version="1.4.4 (dcaf3e7, 2026-05-05)"
   sodipodi:docname="adams-erben-mark.svg"
   xmlns:inkscape="http://www.inkscape.org/namespaces/inkscape"
   xmlns:sodipodi="http://sodipodi.sourceforge.net/DTD/sodipodi-0.dtd"
   xmlns="http://www.w3.org/2000/svg"
   xmlns:svg="http://www.w3.org/2000/svg"><sodipodi:namedview
     id="namedview1"
     pagecolor="#ffffff"
     bordercolor="#000000"
     borderopacity="0.25"
     inkscape:showpageshadow="2"
     inkscape:pageopacity="0.0"
     inkscape:pagecheckerboard="0"
     inkscape:deskcolor="#d1d1d1"
     inkscape:document-units="mm"
     inkscape:zoom="0.71891835"
     inkscape:cx="249.68065"
     inkscape:cy="263.59043"
     inkscape:window-width="1920"
     inkscape:window-height="1009"
     inkscape:window-x="-8"
     inkscape:window-y="-7"
     inkscape:window-maximized="1"
     inkscape:current-layer="layer7"><inkscape:page
       x="0"
       y="0"
       width="134.85207"
       height="134.50136"
       id="page22"
       margin="3.0000002"
       bleed="0" /></sodipodi:namedview><defs
     id="defs1"><clipPath
       clipPathUnits="userSpaceOnUse"
       id="clipPath3"><g
         inkscape:label="Clip"
         id="use3" /></clipPath></defs><g
     inkscape:groupmode="layer"
     id="layer7"
     inkscape:label="Ebene 2"
     transform="translate(-38.974416,-49.360171)"><g
       id="g22"
       inkscape:label="watch"
       style="display:inline"><path
         id="path16"
         style="display:inline;fill:#04285b;fill-opacity:1"
         d="M 119.70902 99.71627 C 113.06628 99.72057 112.77669 99.777834 111.74724 101.30325 C 111.16063 102.17254 111.1294 102.42031 111.2098 105.62134 L 111.29507 109.01751 L 112.1591 109.78852 C 112.86858 110.4219 113.2591 110.56005 114.34191 110.56005 C 116.08063 110.56005 116.71902 111.16252 116.71902 112.80384 C 116.71902 114.12141 116.97592 113.96859 113.80861 114.53655 C 111.22082 115.00059 108.38578 115.96748 105.79928 117.26765 L 103.47849 118.43399 L 102.9333 117.74101 L 102.38812 117.04803 L 102.93899 116.68216 C 103.242 116.48097 103.48986 116.07428 103.48986 115.77834 C 103.48986 115.15372 102.28386 113.47047 101.83621 113.47047 C 101.66893 113.47047 100.42481 114.20076 99.071523 115.09311 C 96.295653 116.92351 96.142404 117.25975 97.400824 118.76214 C 98.170184 119.68066 98.182787 119.68491 98.952667 119.2541 C 99.714302 118.8279 99.739373 118.83398 100.28954 119.57811 L 100.85023 120.3362 L 98.654494 122.53193 C 95.908114 125.27831 94.284995 127.53956 92.786635 130.70766 C 89.023025 138.66535 88.89797 146.74294 92.40733 155.17283 C 94.09619 159.22963 98.431796 164.54914 102.31732 167.33178 C 105.69254 169.74896 110.01258 171.54734 114.3171 172.32683 C 123.54208 173.99735 133.29222 170.78753 140.0685 163.84982 C 142.70549 161.15003 143.87747 159.46838 145.58341 155.93609 C 148.80726 149.26088 149.43752 142.82624 147.5559 135.79521 C 146.05335 130.18067 142.26774 124.2766 137.94099 120.80025 C 137.09071 120.11709 137.08045 120.08456 137.50845 119.43135 C 137.96139 118.74007 138.52615 118.56465 138.81173 119.02672 C 139.16341 119.59575 139.96325 119.2448 140.63798 118.22522 C 141.11159 117.5099 141.26965 117.02843 141.12012 116.76122 C 140.80254 116.19374 136.28687 113.16604 135.93232 113.28288 C 135.76987 113.33638 135.28788 113.87565 134.86107 114.48126 L 134.08489 115.58249 L 134.70759 116.24498 C 135.26962 116.84324 135.29554 116.97343 134.97269 117.57668 C 134.77592 117.94435 134.54751 118.20961 134.46471 118.16631 C 130.8478 116.27306 126.5502 114.69271 124.15371 114.37481 L 122.80444 114.19601 L 122.80444 112.9103 C 122.80444 111.18109 123.34919 110.56005 124.8653 110.56005 C 126.16487 110.56005 126.96137 110.2268 127.6274 109.40457 C 128.00652 108.93654 128.08542 108.26253 128.09042 105.4539 C 128.10042 99.727558 128.07602 99.71127 119.70902 99.71627 z M 114.47007 103.01943 L 119.76173 103.01943 L 125.0534 103.01943 L 125.0534 105.26839 L 125.0534 107.51734 L 124.32476 107.60106 C 123.9155 107.64816 123.41395 107.50316 123.18116 107.27033 C 122.60096 106.69014 117.06701 106.66934 116.30665 107.24449 C 115.65941 107.73404 114.62876 107.7615 114.4494 107.2941 C 114.3744 107.09858 114.34834 106.05679 114.39152 104.979 L 114.47007 103.01943 z M 119.11474 122.84819 C 121.12577 122.82615 123.13451 122.99569 124.52423 123.36341 C 135.08265 126.15714 141.72068 136.81443 139.51608 147.43377 C 137.96979 154.88212 132.7136 160.79954 125.58257 163.12067 C 123.81034 163.69753 122.88467 163.82215 119.89402 163.88755 C 116.01488 163.97241 115.81478 163.9512 113.30373 163.18888 C 107.49818 161.42639 102.83367 157.30024 100.27972 151.66762 C 99.091954 149.04808 98.644407 146.78923 98.636407 143.36839 C 98.627627 139.72742 99.109982 137.51416 100.56756 134.50484 C 103.23937 128.98862 107.79807 125.15936 113.6913 123.48174 C 115.09042 123.08345 117.10372 122.87024 119.11474 122.84819 z " /><path
         style="display:inline;fill:#04285b;fill-opacity:1"
         d="m 122.50264,147.40885 c -1.30074,-1.21668 -1.37155,-1.24579 -3.04997,-1.25396 -1.60847,-0.008 -1.76864,-0.0647 -2.50579,-0.88958 -0.71241,-0.7972 -0.78011,-1.02997 -0.71016,-2.4415 0.076,-1.53329 0.0563,-1.58213 -1.13677,-2.82295 -1.87173,-1.9466 -7.02713,-8.97635 -6.7709,-9.23259 0.19629,-0.19629 6.03547,4.98999 8.18704,7.27161 1.46833,1.5571 1.92612,1.88894 2.60584,1.88894 2.14582,0 3.58573,1.5883 3.33779,3.68177 -0.14048,1.18611 -0.0974,1.28885 1.01311,2.41652 2.14447,2.17759 1.24703,3.4557 -0.97019,1.38174 z"
         id="path11" /></g><path
       id="path20"
       style="fill:#04285b;fill-opacity:1"
       d="M 181.74015 168.07133 C 136.29817 168.06243 138.5845 167.98889 133.88209 169.60974 C 129.66772 171.06237 125.06543 174.43201 122.1903 178.16994 C 119.90058 181.14678 117.84406 185.88864 117.42831 189.15066 C 117.32099 189.9927 117.23298 209.67231 117.23298 232.88288 L 117.23298 275.08392 L 117.84017 277.33288 C 118.17396 278.56981 119.0286 280.77246 119.73928 282.22767 C 123.24429 289.40461 129.99019 294.58329 138.00277 296.24748 C 139.41063 296.53987 147.47277 296.59673 182.45277 296.56013 L 225.18298 296.51517 L 227.43194 295.80513 C 231.98689 294.36722 235.03258 292.64189 238.13774 289.73987 C 241.60926 286.49546 244.16043 282.32115 245.47786 277.72975 L 246.08506 275.61308 L 246.08506 232.75058 C 246.08506 209.17621 246.00423 189.33868 245.90523 188.66697 C 245.67314 187.09205 244.55148 183.75646 243.66402 182.00174 C 240.70105 176.14326 235.26616 171.4754 229.0122 169.41802 C 224.80457 168.03386 226.43612 168.08033 181.74015 168.07133 z M 139.65641 173.38935 L 181.196 173.38935 C 225.87222 173.38935 224.35223 173.34581 228.12492 174.74792 C 232.81702 176.49173 237.17078 180.55385 239.15422 185.03877 C 239.50037 185.82146 240.02572 187.41 240.32159 188.56879 C 240.85153 190.64273 240.85954 191.31914 240.85954 231.82299 C 240.85954 276.46409 240.91502 274.6588 239.4281 278.34005 C 236.85017 284.72235 231.16536 289.45184 224.4006 290.84213 C 222.58918 291.2144 217.76863 291.25966 181.27351 291.24676 C 134.62002 291.23021 138.6462 291.42378 133.70329 288.96317 C 131.58578 287.90906 130.79013 287.31406 128.65295 285.18718 C 126.48261 283.0273 125.93745 282.29911 124.87902 280.14873 C 124.19857 278.76628 123.37555 276.62315 123.05019 275.38623 L 122.4585 273.13727 L 122.4585 231.72998 L 122.4585 190.32268 L 123.06776 188.20602 C 125.16813 180.90744 130.05175 176.11019 137.53975 173.98931 L 139.65641 173.38935 z "
       inkscape:label="frame"
       transform="translate(-75.258745,-115.70824)" /><path
       id="path18"
       style="opacity:1;fill:#04285b;fill-opacity:1"
       d="M 125.13101 64.660662 C 116.54732 64.646775 107.60922 66.566438 98.992035 70.321815 C 91.162935 73.733755 79.711007 81.499359 72.401927 88.352239 C 71.383107 89.307469 69.715893 90.638292 68.697243 91.309682 C 63.719083 94.590812 59.23449 98.802048 57.00235 102.29144 C 53.61303 107.58982 54.404203 111.9889 59.154673 114.25608 C 60.663933 114.97639 64.01265 115.91724 66.05141 116.19395 C 67.70553 116.41844 71.674401 116.36591 73.327451 116.09783 C 75.889261 115.68237 77.550093 114.90829 82.068003 112.02366 C 94.006323 104.4012 108.28035 97.413878 117.64516 94.608188 C 124.77382 92.472448 127.81271 92.263413 132.39516 93.593263 C 138.19076 95.275183 145.2017 98.468005 150.71808 101.93746 C 154.12566 104.08062 155.42561 104.43635 156.45209 103.50739 C 157.00943 103.00301 157.11205 101.18175 156.64123 100.14842 C 156.40692 99.634167 156.49429 98.776059 157.06756 95.968829 C 158.75645 87.698459 158.01425 81.388294 154.78398 76.558644 C 151.08457 71.027554 143.20065 66.851777 133.57132 65.322637 C 130.81381 64.884745 127.99224 64.665291 125.13101 64.660662 z M 117.9671 85.564296 C 120.51593 85.480795 122.93691 85.513516 125.17545 85.6754 C 133.77019 86.29695 140.71465 87.990987 146.29199 90.826507 C 148.00576 91.697787 150.10491 93.097686 149.69798 93.097686 C 149.58972 93.097686 149.17989 92.93196 148.78693 92.72975 C 146.22855 91.41323 139.27489 89.484116 133.96509 88.617856 C 127.28828 87.528586 115.43276 87.642912 107.06183 88.877272 C 91.043632 91.239272 73.223476 96.676528 64.426186 101.88578 C 61.745636 103.47305 59.0626 105.81258 58.34697 107.18675 C 58.13856 107.58693 57.898986 107.91435 57.814186 107.91435 C 57.492366 107.91435 58.05098 106.40937 58.81981 105.20547 C 59.82992 103.62374 62.061572 101.56954 64.513002 99.964967 C 76.026926 92.428592 100.1253 86.148802 117.9671 85.564296 z "
       inkscape:label="hat"
       transform="translate(0.16113638,0.25463146)" /></g></svg>
