<?xml version="1.0" encoding="UTF-8" standalone="no"?><!DOCTYPE svg PUBLIC "-//W3C//DTD SVG 1.1//EN"
  "http://www.w3.org/Graphics/SVG/1.1/DTD/svg11.dtd">
<svg width="100%" height="100%" viewBox="0 0 1687 292" version="1.1" xmlns="http://www.w3.org/2000/svg"

     style="fill-rule:evenodd;clip-rule:evenodd;stroke-linejoin:round;stroke-miterlimit:2;"><g><g><g><path d="M1394.49,211.702c-13.669,-0 -24.01,10.191 -24.01,24.357c-0,14.166 10.341,24.263 24.01,24.263c13.663,-0 24.01,-10.192 24.01,-24.263c-0,-14.072 -10.342,-24.357 -24.01,-24.357Zm-0,38.606c-7.831,-0 -13.404,-5.951 -13.404,-14.249c-0,-8.298 5.573,-14.343 13.404,-14.343c7.824,-0 13.398,6.045 13.398,14.343c-0,8.298 -5.667,14.249 -13.398,14.249Z" style="fill:#fff;fill-rule:nonzero;"/></g><g><path d="M1437.92,199.617l-10.254,3.155l0,10.192l-8.089,-0l-0,8.746l8.089,0l0,22.73c0,10.014 5.485,15.693 14.746,15.693c2.698,0 4.944,-0.271 6.743,-0.813l-0,-8.929c-1.258,0.454 -2.699,0.631 -3.869,0.631c-5.032,-0 -7.372,-2.707 -7.372,-7.485l0,-21.827l11.241,0l-0,-8.746l-11.241,-0l0,-13.347Z" style="fill:#fff;fill-rule:nonzero;"/></g><g><path d="M1457.55,192.676l-10.436,-0l20.42,67.19l11.6,0l20.332,-67.19l-10.342,-0l-15.377,53.753l-0.177,0l-16.02,-53.753Z" style="fill:#fff;fill-rule:nonzero;"/></g></g><g><path d="M431.857,161.204c-8.318,-0.954 -15.021,-2.182 -20.11,-3.682c-5.088,-1.5 -8.973,-3.272 -11.655,-5.317c-2.682,-2.046 -4.497,-4.365 -5.451,-6.956c-0.955,-2.59 -1.432,-5.795 -1.432,-9.613c0,-3.953 0.636,-7.34 1.91,-10.159c1.272,-2.817 3.409,-5.113 6.406,-6.884c2.998,-1.772 6.999,-3.068 12,-3.887c4.997,-0.817 11.268,-1.228 18.815,-1.228c12.001,0 22.793,0.592 32.385,1.773c9.588,1.182 18.021,2.546 25.294,4.091l5.999,-39.682c-4.635,-1.181 -9.956,-2.272 -15.954,-3.272c-6.002,-0.999 -12.182,-1.84 -18.544,-2.522c-6.366,-0.682 -12.658,-1.227 -18.886,-1.637c-6.229,-0.409 -11.889,-0.614 -16.978,-0.614c-13.635,-0 -26.043,1.159 -37.225,3.478c-11.183,2.319 -20.816,6.092 -28.907,11.318c-8.091,5.229 -14.36,12.069 -18.815,20.522c-4.454,8.454 -6.681,18.862 -6.681,31.226c0,10.91 1.34,20.091 4.023,27.544c2.682,7.455 7.203,13.66 13.567,18.612c6.361,4.956 14.839,8.865 25.43,11.728c10.589,2.864 23.792,5.159 39.611,6.887c8.725,0.955 15.703,2.227 20.93,3.817c5.226,1.592 9.202,3.523 11.931,5.795c2.725,2.274 4.52,4.887 5.386,7.841c0.862,2.956 1.295,6.432 1.295,10.431c0,4.091 -0.751,7.546 -2.251,10.363c-1.499,2.819 -3.864,5.091 -7.09,6.817c-3.229,1.729 -7.503,2.978 -12.818,3.75c-5.319,0.773 -11.886,1.159 -19.704,1.159c-13.091,0 -25.021,-0.704 -35.792,-2.113c-10.772,-1.41 -19.614,-3.022 -26.522,-4.841l-6.409,40.228c5.999,1.819 12.953,3.387 20.863,4.704c7.907,1.318 15.93,2.386 24.067,3.204c8.137,0.818 15.908,1.409 23.317,1.772c7.407,0.363 13.839,0.545 19.295,0.545c15.181,0 28.567,-1.205 40.158,-3.613c11.589,-2.41 21.293,-6.364 29.111,-11.864c7.815,-5.5 13.703,-12.749 17.658,-21.748c3.954,-9.001 5.932,-20.045 5.932,-33.136c0,-11.636 -1.546,-21.317 -4.635,-29.043c-3.091,-7.727 -8.16,-14.158 -15.204,-19.294c-7.047,-5.136 -16.226,-9.067 -27.544,-11.795c-11.318,-2.728 -25.112,-4.954 -41.384,-6.681Z" style="fill:#fff;fill-rule:nonzero;"/><path d="M606.292,140.751c-11.409,0 -21.295,2.136 -29.658,6.409c-8.364,4.272 -15.183,10.181 -20.453,17.725c-5.274,7.546 -9.16,16.455 -11.659,26.727c-2.5,10.272 -3.749,21.408 -3.749,33.407c0,13.455 1.476,25.18 4.432,35.181c2.953,10 7.429,18.294 13.43,24.884c5.999,6.591 13.522,11.501 22.566,14.727c9.044,3.226 19.612,4.84 31.703,4.84c8.908,-0 17.384,-0.569 25.431,-1.704c8.045,-1.136 15.339,-2.636 21.885,-4.501l-4.638,-35.317c-5.999,1.365 -11.34,2.41 -16.021,3.137c-4.683,0.729 -9.615,1.09 -14.795,1.09c-6.637,0 -12.022,-0.681 -16.158,-2.045c-4.137,-1.364 -7.342,-3.409 -9.613,-6.136c-2.274,-2.727 -3.796,-6.135 -4.568,-10.227c-0.773,-4.091 -1.159,-8.817 -1.159,-14.181l76.771,-0l0,-16.091c0,-11.816 -1.16,-22.612 -3.477,-32.385c-2.318,-9.771 -6.024,-18.203 -11.113,-25.293c-5.091,-7.091 -11.637,-12.567 -19.635,-16.431c-8,-3.863 -17.819,-5.796 -29.452,-5.796Zm-26.863,61.226c0.272,-5.726 0.909,-10.521 1.909,-14.386c0.999,-3.862 2.5,-6.929 4.499,-9.203c1.999,-2.271 4.567,-3.885 7.705,-4.84c3.136,-0.954 6.885,-1.432 11.248,-1.432c4.182,-0 7.612,0.478 10.294,1.432c2.682,0.955 4.817,2.569 6.408,4.84c1.59,2.274 2.705,5.341 3.341,9.203c0.635,3.865 0.954,8.66 0.954,14.386l-46.358,0Z" style="fill:#fff;fill-rule:nonzero;"/><path d="M769.354,143.751c-7.183,-0 -13.773,1.204 -19.772,3.613c-6.001,2.409 -11.137,5.796 -15.408,10.159l-2.046,-13.772l-39.818,-0l0,157.491l44.726,-0l0,-106.315c3.363,-4.363 7.113,-7.567 11.249,-9.614c4.135,-2.045 8.431,-3.067 12.887,-3.067c4.726,-0 9.021,0.455 12.886,1.364l4.092,-38.18c-3.182,-1.09 -6.115,-1.705 -8.796,-1.705l-0,0.026Z" style="fill:#fff;fill-rule:nonzero;"/><path d="M880.351,140.751c-11.409,0 -21.295,2.136 -29.658,6.409c-8.364,4.272 -15.183,10.181 -20.453,17.725c-5.274,7.546 -9.16,16.455 -11.659,26.727c-2.5,10.272 -3.749,21.408 -3.749,33.407c0,13.455 1.476,25.18 4.432,35.181c2.953,10 7.429,18.294 13.43,24.884c5.999,6.591 13.522,11.501 22.566,14.727c9.044,3.226 19.612,4.84 31.703,4.84c8.908,-0 17.384,-0.569 25.431,-1.704c8.045,-1.136 15.339,-2.636 21.885,-4.501l-4.638,-35.317c-5.999,1.365 -11.34,2.41 -16.021,3.137c-4.683,0.729 -9.615,1.09 -14.795,1.09c-6.637,0 -12.022,-0.681 -16.158,-2.045c-4.137,-1.364 -7.342,-3.409 -9.613,-6.136c-2.274,-2.727 -3.796,-6.135 -4.568,-10.227c-0.773,-4.091 -1.159,-8.817 -1.159,-14.181l76.771,-0l0,-16.091c0,-11.816 -1.16,-22.612 -3.477,-32.385c-2.318,-9.771 -6.024,-18.203 -11.113,-25.293c-5.091,-7.091 -11.637,-12.567 -19.635,-16.431c-8,-3.863 -17.819,-5.796 -29.452,-5.796Zm-26.863,61.226c0.272,-5.726 0.909,-10.521 1.909,-14.386c0.999,-3.862 2.5,-6.929 4.499,-9.203c1.999,-2.271 4.567,-3.885 7.705,-4.84c3.136,-0.954 6.885,-1.432 11.248,-1.432c4.182,-0 7.612,0.478 10.294,1.432c2.682,0.955 4.817,2.569 6.408,4.84c1.59,2.274 2.705,5.341 3.341,9.203c0.635,3.865 0.954,8.66 0.954,14.386l-46.358,0Z" style="fill:#fff;fill-rule:nonzero;"/><path d="M1052.78,140.751c-11.409,0 -21.295,2.136 -29.658,6.409c-8.364,4.272 -15.183,10.181 -20.453,17.725c-5.274,7.546 -9.16,16.455 -11.659,26.727c-2.5,10.272 -3.749,21.408 -3.749,33.407c0,13.455 1.476,25.18 4.432,35.181c2.953,10 7.429,18.294 13.43,24.884c5.999,6.591 13.522,11.501 22.566,14.727c9.044,3.226 19.612,4.84 31.703,4.84c8.908,-0 17.384,-0.569 25.431,-1.704c8.045,-1.136 15.339,-2.636 21.885,-4.501l-4.638,-35.317c-5.999,1.365 -11.34,2.41 -16.021,3.137c-4.683,0.729 -9.615,1.09 -14.795,1.09c-6.637,0 -12.022,-0.681 -16.158,-2.045c-4.137,-1.364 -7.342,-3.409 -9.613,-6.136c-2.274,-2.727 -3.796,-6.135 -4.568,-10.227c-0.773,-4.091 -1.159,-8.817 -1.159,-14.181l76.771,-0l0,-16.091c0,-11.816 -1.16,-22.612 -3.477,-32.385c-2.318,-9.771 -6.024,-18.203 -11.113,-25.293c-5.091,-7.091 -11.637,-12.567 -19.635,-16.431c-8,-3.863 -17.819,-5.796 -29.452,-5.796Zm-26.863,61.226c0.272,-5.726 0.909,-10.521 1.909,-14.386c0.999,-3.862 2.5,-6.929 4.499,-9.203c1.999,-2.271 4.567,-3.885 7.705,-4.84c3.136,-0.954 6.885,-1.432 11.248,-1.432c4.182,-0 7.612,0.478 10.294,1.432c2.682,0.955 4.817,2.569 6.408,4.84c1.59,2.274 2.705,5.341 3.341,9.203c0.635,3.865 0.954,8.66 0.954,14.386l-46.358,0Z" style="fill:#fff;fill-rule:nonzero;"/><path d="M1237.58,140.751c-11.409,0 -21.295,2.136 -29.658,6.409c-8.364,4.272 -15.183,10.181 -20.453,17.725c-5.274,7.546 -9.16,16.455 -11.659,26.727c-2.5,10.272 -3.749,21.408 -3.749,33.407c0,13.455 1.476,25.18 4.432,35.181c2.953,10 7.429,18.294 13.43,24.884c5.999,6.591 13.522,11.501 22.566,14.727c9.044,3.226 19.612,4.84 31.703,4.84c8.908,-0 17.384,-0.569 25.431,-1.704c8.045,-1.136 15.339,-2.636 21.885,-4.501l-4.638,-35.317c-5.999,1.365 -11.34,2.41 -16.021,3.137c-4.683,0.729 -9.615,1.09 -14.795,1.09c-6.637,0 -12.022,-0.681 -16.158,-2.045c-4.137,-1.364 -7.342,-3.409 -9.613,-6.136c-2.274,-2.727 -3.796,-6.135 -4.568,-10.227c-0.773,-4.091 -1.159,-8.817 -1.159,-14.181l76.771,-0l0,-16.091c0,-11.816 -1.16,-22.612 -3.477,-32.385c-2.318,-9.771 -6.024,-18.203 -11.113,-25.293c-5.091,-7.091 -11.637,-12.567 -19.635,-16.431c-8,-3.863 -17.819,-5.796 -29.452,-5.796Zm-26.863,61.226c0.272,-5.726 0.909,-10.521 1.909,-14.386c0.999,-3.862 2.5,-6.929 4.499,-9.203c1.999,-2.271 4.567,-3.885 7.705,-4.84c3.136,-0.954 6.885,-1.432 11.248,-1.432c4.182,-0 7.612,0.478 10.294,1.432c2.682,0.955 4.817,2.569 6.408,4.84c1.59,2.274 2.705,5.341 3.341,9.203c0.635,3.865 0.954,8.66 0.954,14.386l-46.358,0Z" style="fill:#fff;fill-rule:nonzero;"/><path d="M1569.2,143.751c-7.181,-0 -13.772,1.204 -19.771,3.613c-6,2.409 -11.136,5.796 -15.408,10.159l-2.045,-13.772l-39.818,-0l-0,157.491l44.725,-0l0,-106.315c3.364,-4.363 7.114,-7.567 11.25,-9.614c4.134,-2.045 8.43,-3.067 12.886,-3.067c4.726,-0 9.022,0.455 12.886,1.364l4.092,-38.18c-3.182,-1.09 -6.115,-1.705 -8.795,-1.705l-0,0.026Z" style="fill:#fff;fill-rule:nonzero;"/></g><g><path d="M191.326,174.594l-0,-59.853l17.453,-6.227l-0,61.988l-17.453,4.092Z" style="fill:#fff;fill-rule:nonzero;"/><path d="M191.326,207.991l-0,-17.18l17.453,-4.091l-0,17.18l-17.453,4.091Z" style="fill:#fff;fill-rule:nonzero;"/><path d="M191.326,241.388l-0,-17.181l17.453,-4.091l-0,17.181l-17.453,4.091Z" style="fill:#fff;fill-rule:nonzero;"/><path d="M191.326,274.784l-0,-17.181l17.453,-4.091l-0,17.181l-17.453,4.091Z" style="fill:#fff;fill-rule:nonzero;"/><path d="M139.513,186.749l-0,-53.512l17.453,-6.227l-0,55.647l-17.453,4.092Z" style="fill:#fff;fill-rule:nonzero;"/><path d="M139.513,220.146l-0,-17.181l17.453,-4.091l-0,17.181l-17.453,4.091Z" style="fill:#fff;fill-rule:nonzero;"/><path d="M139.513,253.542l-0,-17.18l17.453,-4.092l-0,17.18l-17.453,4.092Z" style="fill:#fff;fill-rule:nonzero;"/><path d="M139.513,286.939l-0,-17.181l17.453,-4.091l-0,17.181l-17.453,4.091Z" style="fill:#fff;fill-rule:nonzero;"/><path d="M87.7,198.905l-0,-47.172l17.453,-6.227l-0,49.307l-17.453,4.092Z" style="fill:#fff;fill-rule:nonzero;"/><path d="M87.7,232.301l-0,-17.181l17.453,-4.091l-0,17.181l-17.453,4.091Z" style="fill:#fff;fill-rule:nonzero;"/><path d="M87.7,265.698l-0,-17.181l17.453,-4.091l-0,17.181l-17.453,4.091Z" style="fill:#fff;fill-rule:nonzero;"/><path d="M87.7,299.094l-0,-17.18l17.453,-4.092l-0,17.18l-17.453,4.092Z" style="fill:#fff;fill-rule:nonzero;"/><path d="M35.888,211.06l-0,-40.831l17.453,-6.227l-0,42.966l-17.453,4.092Z" style="fill:#fff;fill-rule:nonzero;"/><path d="M35.888,244.457l-0,-17.181l17.453,-4.091l-0,17.181l-17.453,4.091Z" style="fill:#fff;fill-rule:nonzero;"/><path d="M35.888,277.853l-0,-17.18l17.453,-4.092l-0,17.18l-17.453,4.092Z" style="fill:#fff;fill-rule:nonzero;"/><path d="M35.888,311.25l-0,-17.181l17.453,-4.091l-0,17.181l-17.453,4.091Z" style="fill:#fff;fill-rule:nonzero;"/></g></g></svg>