<?xml version="1.0" encoding="UTF-8" standalone="no"?>
<svg xmlns:dc="http://purl.org/dc/elements/1.1/" xmlns:cc="http://creativecommons.org/ns#" xmlns:rdf="http://www.w3.org/1999/02/22-rdf-syntax-ns#" xmlns:svg="http://www.w3.org/2000/svg" xmlns="http://www.w3.org/2000/svg" xmlns:sodipodi="http://sodipodi.sourceforge.net/DTD/sodipodi-0.dtd" xmlns:inkscape="http://www.inkscape.org/namespaces/inkscape" viewBox="0 0 2008.1322 1359.6666" height="1359.6666" width="2008.1322" xml:space="preserve" id="svg2" version="1.1" sodipodi:docname="logo_rgb.svg" inkscape:export-filename="C:\Users\KEANU\Desktop\logo_white.png" inkscape:export-xdpi="401" inkscape:export-ydpi="401" inkscape:version="1.0.1 (3bc2e813f5, 2020-09-07)"><sodipodi:namedview pagecolor="#ffffff" bordercolor="#666666" borderopacity="1" objecttolerance="10" gridtolerance="10" guidetolerance="10" inkscape:pageopacity="0" inkscape:pageshadow="2" inkscape:window-width="1668" inkscape:window-height="839" id="namedview1686" showgrid="false" fit-margin-top="0" fit-margin-left="0" fit-margin-right="0" fit-margin-bottom="0" inkscape:zoom="0.13881838" inkscape:cx="411.23493" inkscape:cy="1080.6722" inkscape:window-x="99" inkscape:window-y="34" inkscape:window-maximized="0" inkscape:current-layer="svg2"/><metadata id="metadata8"><rdf:RDF><cc:Work rdf:about=""><dc:format>image/svg+xml</dc:format><dc:type rdf:resource="http://purl.org/dc/dcmitype/StillImage"/><dc:title/></cc:Work></rdf:RDF></metadata><defs id="defs6"><clipPath id="clipPath18" clipPathUnits="userSpaceOnUse"><path id="path16" d="M 0,1407.263 H 1934.986 V 0 H 0 Z"/></clipPath></defs><g transform="matrix(1.3333333,0,0,-1.3333333,-262.66719,1548.0172)" id="g10"><g id="g12"><g clip-path="url(#clipPath18)" id="g14"><g transform="translate(770.3496,588.7129)" id="g20"><path id="path22" style="fill:#000000;fill-opacity:1;fill-rule:evenodd;stroke:none" d="M 0,0 C 1.329,-3.265 1.996,-6.798 2,-10.601 1.997,-16.826 0.23,-22.126 -3.3,-26.5 c -1.596,-2.009 -3.521,-3.726 -5.774,-5.15 -1.475,-0.921 -3.058,-1.696 -4.75,-2.326 L 4.375,-68.925 c 0.217,-0.422 0.275,-0.864 0.176,-1.325 -0.099,-0.466 -0.332,-0.849 -0.7,-1.15 -0.365,-0.3 -0.782,-0.45 -1.25,-0.451 H -12.25 c -0.377,0 -0.727,0.101 -1.05,0.301 -0.326,0.197 -0.576,0.464 -0.75,0.8 l -17.099,34.2 H -43.75 v -33.301 c 0.004,-0.555 -0.188,-1.03 -0.574,-1.424 -0.395,-0.387 -0.869,-0.579 -1.426,-0.576 h -12.699 c -0.557,-0.003 -1.031,0.189 -1.426,0.576 -0.387,0.394 -0.578,0.869 -0.574,1.424 V 13.85 c -0.004,0.555 0.187,1.031 0.574,1.424 0.395,0.388 0.869,0.58 1.426,0.576 H -26 c 4.154,-10e-4 7.971,-0.643 11.45,-1.925 3.43,-1.264 6.388,-3.088 8.875,-5.475 L -5.649,8.425 C -3.186,6.034 -1.303,3.226 0,0 m -21.8,-20.95 h 0.026 c 1.461,0.48 2.728,1.196 3.799,2.15 1.038,0.933 1.83,2.058 2.375,3.375 v 0.025 c 0.596,1.396 0.897,2.962 0.901,4.7 -0.002,1.749 -0.303,3.341 -0.901,4.775 -0.545,1.317 -1.337,2.442 -2.375,3.375 -1.078,0.957 -2.353,1.691 -3.825,2.199 -1.568,0.532 -3.285,0.799 -5.149,0.801 H -43.75 v -22.2 h 16.801 c 1.893,0.003 3.61,0.27 5.149,0.8 m -95.724,-19.25 h 20.125 l -9.925,29.025 z M 485.95,-394.3 c 0.467,-2.533 0.7,-8.084 0.7,-16.65 0,-8.633 -0.233,-14.217 -0.7,-16.75 -0.467,-2.5 -1.266,-4.783 -2.399,-6.85 -1.768,-3.167 -4.551,-6.1 -8.351,-8.801 -3.8,-2.732 -8.483,-4.099 -14.05,-4.099 -5.667,0 -10.4,1.367 -14.2,4.099 -3.8,2.701 -6.533,5.634 -8.2,8.801 -1.166,2.067 -1.982,4.35 -2.449,6.85 -0.434,2.467 -0.651,8.05 -0.651,16.75 0,8.667 0.217,14.217 0.651,16.65 0.467,2.5 1.283,4.8 2.449,6.9 1.667,3.133 4.4,6.083 8.2,8.85 3.833,2.733 8.568,4.1 14.2,4.1 5.567,0 10.25,-1.367 14.05,-4.1 3.8,-2.767 6.583,-5.717 8.351,-8.85 1.133,-2.067 1.932,-4.367 2.399,-6.9 m -13.899,3.65 c -1.068,1.367 -2.533,2.583 -4.401,3.65 -1.833,1.033 -4,1.55 -6.5,1.55 -2.533,0 -4.716,-0.517 -6.549,-1.55 -1.868,-1.067 -3.333,-2.283 -4.401,-3.65 -1.366,-1.8 -2.3,-3.8 -2.8,-6 -0.5,-2.201 -0.75,-6.967 -0.75,-14.3 0,-7.333 0.25,-12.1 0.75,-14.3 0.5,-2.233 1.434,-4.217 2.8,-5.95 1.068,-1.434 2.533,-2.667 4.401,-3.7 1.833,-1.034 4.016,-1.55 6.549,-1.55 2.5,0 4.667,0.516 6.5,1.55 1.868,1.033 3.333,2.266 4.401,3.7 1.366,1.766 2.316,3.75 2.849,5.95 0.5,2.2 0.75,6.967 0.75,14.3 0,7.333 -0.25,12.099 -0.75,14.3 -0.5,2.167 -1.45,4.167 -2.849,6 m -83.25,15.2 H 400.2 l -23.5,-71 h -8.399 l -23.45,71 H 356.2 l 16.2,-54 h 0.201 z M 165.9,16.55 c 4.056,-0.003 7.848,-0.586 11.375,-1.75 h 0.026 c 3.533,-1.221 6.691,-2.996 9.474,-5.325 2.828,-2.356 5.152,-5.231 6.975,-8.625 1.872,-3.443 3.197,-7.342 3.976,-11.701 0.063,-0.386 0.013,-0.761 -0.151,-1.125 -0.153,-0.372 -0.394,-0.672 -0.724,-0.899 -0.336,-0.219 -0.704,-0.327 -1.101,-0.325 h -12.949 c -0.465,-0.003 -0.882,0.138 -1.25,0.425 -0.363,0.294 -0.597,0.669 -0.7,1.125 -0.925,3.976 -2.618,7.077 -5.076,9.299 -2.649,2.332 -5.94,3.499 -9.875,3.5 C 163.699,1.154 161.633,0.771 159.7,0 h 0.026 c -1.856,-0.78 -3.423,-1.864 -4.701,-3.25 -0.939,-1.03 -1.689,-2.089 -2.25,-3.175 l 0.026,0.025 c -0.59,-1.188 -1.048,-2.613 -1.375,-4.275 -0.353,-1.797 -0.594,-4.089 -0.726,-6.875 -0.133,-2.641 -0.199,-6.125 -0.2,-10.45 0.001,-4.325 0.067,-7.809 0.2,-10.45 0.132,-2.754 0.373,-5.029 0.726,-6.825 0.327,-1.694 0.785,-3.135 1.375,-4.326 l -0.026,0.026 c 0.561,-1.087 1.311,-2.146 2.25,-3.175 1.271,-1.383 2.829,-2.449 4.675,-3.2 h 0.026 c 1.924,-0.802 3.982,-1.201 6.174,-1.2 3.966,0.002 7.275,1.169 9.925,3.5 2.524,2.253 4.248,5.353 5.175,9.299 0.104,0.455 0.338,0.83 0.7,1.125 0.369,0.288 0.785,0.429 1.25,0.426 h 12.8 c 0.398,10e-4 0.765,-0.107 1.101,-0.325 0.328,-0.219 0.57,-0.51 0.724,-0.875 0.164,-0.363 0.214,-0.738 0.151,-1.125 -0.744,-4.332 -2.052,-8.225 -3.925,-11.675 -1.859,-3.392 -4.217,-6.284 -7.075,-8.676 -2.783,-2.329 -5.957,-4.104 -9.526,-5.324 h -0.024 c -3.494,-1.165 -7.253,-1.748 -11.276,-1.75 -4.601,0.003 -8.884,0.82 -12.849,2.449 -3.952,1.603 -7.478,3.97 -10.575,7.101 v -0.025 c -2.152,2.162 -3.851,4.487 -5.101,6.975 -1.19,2.326 -2.058,4.977 -2.6,7.949 -0.447,2.475 -0.739,5.517 -0.875,9.125 -0.067,2.049 -0.1,5.707 -0.099,10.976 -10e-4,5.268 0.032,8.926 0.099,10.975 0.136,3.643 0.428,6.701 0.875,9.174 0.542,2.974 1.41,5.623 2.6,7.951 1.25,2.488 2.949,4.812 5.101,6.975 3.098,3.088 6.624,5.43 10.575,7.025 3.965,1.629 8.248,2.446 12.849,2.45 M 72.825,15.274 C 73.212,14.881 73.404,14.405 73.4,13.85 V 2.45 C 73.404,1.894 73.212,1.419 72.825,1.024 72.432,0.638 71.956,0.446 71.4,0.45 H 50.351 v -70.301 c 0.003,-0.555 -0.189,-1.03 -0.576,-1.424 -0.394,-0.387 -0.869,-0.579 -1.424,-0.576 H 35.65 c -0.555,-0.003 -1.031,0.189 -1.424,0.576 -0.387,0.394 -0.58,0.869 -0.576,1.424 V 0.45 H 12.601 C 12.045,0.446 11.569,0.638 11.176,1.024 10.788,1.419 10.597,1.894 10.601,2.45 v 11.4 c -0.004,0.555 0.187,1.031 0.575,1.424 0.393,0.388 0.869,0.58 1.425,0.576 H 71.4 c 0.556,0.004 1.032,-0.188 1.425,-0.576 m 45.776,-44.924 c 0.555,0.004 1.03,-0.188 1.424,-0.576 0.387,-0.393 0.579,-0.869 0.576,-1.424 V -42.8 c 0.003,-0.556 -0.189,-1.031 -0.576,-1.426 -0.394,-0.386 -0.869,-0.578 -1.424,-0.574 H 84.25 c -0.556,-0.004 -1.03,0.188 -1.425,0.574 -0.387,0.395 -0.578,0.87 -0.575,1.426 v 11.15 c -0.003,0.555 0.188,1.031 0.575,1.424 0.395,0.388 0.869,0.58 1.425,0.576 z m 232.349,45.5 c 0.556,0.004 1.031,-0.188 1.425,-0.576 0.387,-0.393 0.579,-0.869 0.575,-1.424 v -83.701 c 0.004,-0.555 -0.188,-1.03 -0.575,-1.424 -0.394,-0.387 -0.869,-0.579 -1.425,-0.576 h -11.649 c -0.335,0.003 -0.652,0.087 -0.95,0.25 -0.298,0.159 -0.54,0.375 -0.726,0.651 l -35.024,53.3 v -52.201 c 0.003,-0.555 -0.189,-1.03 -0.576,-1.424 -0.394,-0.387 -0.869,-0.579 -1.424,-0.576 H 287.9 c -0.555,-0.003 -1.031,0.189 -1.424,0.576 -0.388,0.394 -0.58,0.869 -0.576,1.424 V 13.85 c -0.004,0.555 0.188,1.031 0.576,1.424 0.393,0.388 0.869,0.58 1.424,0.576 h 11.651 c 0.335,-0.003 0.651,-0.087 0.949,-0.25 0.296,-0.156 0.538,-0.372 0.726,-0.65 L 336.25,-38.226 V 13.85 c -0.003,0.555 0.188,1.031 0.575,1.424 0.395,0.388 0.869,0.58 1.425,0.576 z m -107.05,0 c 0.419,0.004 0.802,-0.113 1.151,-0.35 0.341,-0.241 0.582,-0.558 0.724,-0.95 l 30.701,-83.7 c 0.156,-0.422 0.172,-0.847 0.049,-1.275 -0.127,-0.421 -0.369,-0.762 -0.724,-1.025 -0.358,-0.267 -0.758,-0.4 -1.2,-0.401 h -13.55 c -0.432,0.001 -0.823,0.126 -1.176,0.375 -0.346,0.247 -0.588,0.573 -0.725,0.976 l -5.299,15.45 h -30.175 l -5.325,-15.45 c -0.147,-0.402 -0.397,-0.728 -0.75,-0.976 -0.347,-0.248 -0.73,-0.373 -1.151,-0.375 h -13.5 c -0.442,0.001 -0.843,0.134 -1.2,0.401 -0.355,0.263 -0.598,0.604 -0.725,1.025 -0.123,0.428 -0.106,0.853 0.05,1.275 l 30.7,83.7 c 0.143,0.392 0.384,0.709 0.725,0.95 0.349,0.237 0.731,0.354 1.15,0.35 z M 228.825,-40.2 h 20.125 l -9.925,29.025 z M 511.926,5.6 c 0.098,-0.351 0.098,-0.701 0,-1.05 C 511.835,4.195 511.66,3.887 511.4,3.625 l -8.099,-8 c -0.383,-0.379 -0.841,-0.57 -1.375,-0.575 -0.539,-0.006 -1.006,0.178 -1.401,0.55 -2.278,2.157 -4.845,3.707 -7.7,4.65 h -0.024 c -2.584,0.865 -5.634,1.298 -9.151,1.3 -2.191,-0.003 -4.158,-0.303 -5.9,-0.901 l 0.025,0.026 c -1.613,-0.578 -2.996,-1.369 -4.15,-2.375 -1.07,-0.962 -1.879,-2.104 -2.425,-3.425 -0.569,-1.361 -0.852,-2.836 -0.849,-4.425 -0.002,-2.627 0.839,-4.711 2.524,-6.25 l 0.025,-0.025 c 0.88,-0.784 2.014,-1.46 3.401,-2.026 h 0.024 c 1.513,-0.636 3.147,-1.078 4.901,-1.324 h 0.024 l 9.5,-1.45 c 3.982,-0.595 7.282,-1.42 9.9,-2.476 h 0.026 c 2.541,-1.053 4.791,-2.453 6.75,-4.199 H 507.4 c 2.51,-2.171 4.411,-4.896 5.701,-8.176 h 0.024 c 1.221,-3.113 1.829,-6.622 1.825,-10.524 -0.006,-4.086 -0.822,-7.812 -2.45,-11.175 v 0.025 c -1.557,-3.281 -3.822,-6.106 -6.8,-8.475 h -0.024 c -2.847,-2.244 -6.247,-3.97 -10.2,-5.175 v -0.025 c -3.841,-1.154 -8.066,-1.729 -12.675,-1.725 -6.698,10e-4 -12.424,0.876 -17.176,2.625 -5.111,1.825 -9.728,4.834 -13.85,9.025 -0.389,0.398 -0.581,0.874 -0.575,1.424 0.005,0.549 0.205,1.015 0.601,1.401 l 8.449,8.349 c 0.4,0.386 0.876,0.578 1.426,0.576 0.544,10e-4 1.01,-0.192 1.399,-0.576 2.71,-2.716 5.728,-4.667 9.05,-5.849 h -0.024 c 3.053,-1.054 6.703,-1.579 10.95,-1.575 4.953,-0.003 8.811,0.98 11.574,2.95 v 0.025 c 1.223,0.897 2.148,1.997 2.775,3.3 0.635,1.341 0.952,2.85 0.951,4.524 10e-4,1.615 -0.224,3.056 -0.675,4.326 v -0.025 c -0.445,1.173 -1.095,2.14 -1.95,2.9 -0.015,0.016 -0.031,0.033 -0.05,0.049 -0.872,0.813 -1.839,1.421 -2.901,1.826 v 0.025 c -1.17,0.446 -2.885,0.838 -5.15,1.175 l -9.899,1.4 c -3.552,0.487 -6.769,1.345 -9.651,2.574 l -0.024,0.026 c -2.85,1.224 -5.283,2.758 -7.301,4.599 l -0.024,0.026 c -4.485,4.17 -6.727,9.986 -6.726,17.45 0.002,3.923 0.702,7.523 2.101,10.8 V 0.774 c 1.381,3.272 3.381,6.089 6,8.451 l 0.024,0.025 c 2.653,2.376 5.828,4.192 9.525,5.45 h 0.026 c 3.685,1.234 7.794,1.851 12.324,1.85 5.793,-0.003 10.834,-0.778 15.125,-2.325 h 0.025 c 4.332,-1.614 8.4,-4.18 12.201,-7.701 0.273,-0.255 0.464,-0.564 0.575,-0.924 m -87.325,10.25 h 12.7 c 0.555,0.004 1.03,-0.188 1.425,-0.576 0.386,-0.393 0.578,-0.869 0.575,-1.424 v -83.701 c 0.003,-0.555 -0.189,-1.03 -0.575,-1.424 -0.395,-0.387 -0.87,-0.579 -1.425,-0.576 H 425.65 c -0.335,0.003 -0.651,0.087 -0.95,0.25 -0.298,0.159 -0.54,0.375 -0.724,0.651 l -35.026,53.3 v -52.201 c 0.004,-0.555 -0.188,-1.03 -0.575,-1.424 -0.394,-0.387 -0.869,-0.579 -1.425,-0.576 h -12.7 c -0.556,-0.003 -1.03,0.189 -1.425,0.576 -0.387,0.394 -0.578,0.869 -0.575,1.424 V 13.85 c -0.003,0.555 0.188,1.031 0.575,1.424 0.395,0.388 0.869,0.58 1.425,0.576 h 11.65 c 0.336,-0.003 0.653,-0.087 0.951,-0.25 0.295,-0.156 0.537,-0.372 0.724,-0.65 l 35.026,-53.176 V 13.85 c -0.004,0.555 0.187,1.031 0.575,1.424 0.393,0.388 0.869,0.58 1.425,0.576 m -947.226,-1.625 h 0.025 c 4.333,-1.614 8.399,-4.18 12.201,-7.701 0.273,-0.255 0.464,-0.564 0.574,-0.924 0.099,-0.351 0.099,-0.701 0,-1.05 -0.09,-0.355 -0.265,-0.663 -0.525,-0.925 l -8.15,-8 c -0.381,-0.38 -0.839,-0.571 -1.375,-0.575 -0.54,-0.007 -1.006,0.177 -1.399,0.55 -2.248,2.156 -4.798,3.706 -7.651,4.65 h -0.025 c -2.583,0.865 -5.633,1.298 -9.15,1.3 -2.191,-0.003 -4.157,-0.303 -5.9,-0.901 l 0.025,0.026 c -1.612,-0.578 -2.996,-1.369 -4.15,-2.375 -1.07,-0.962 -1.878,-2.104 -2.425,-3.425 -0.569,-1.361 -0.852,-2.836 -0.849,-4.425 -0.002,-2.627 0.839,-4.711 2.524,-6.25 l 0.025,-0.025 c 0.881,-0.784 2.014,-1.46 3.4,-2.026 h 0.025 c 1.513,-0.636 3.146,-1.078 4.901,-1.324 h 0.024 l 9.5,-1.45 c 3.984,-0.595 7.267,-1.42 9.851,-2.476 2.584,-1.052 4.859,-2.453 6.824,-4.199 h -0.025 c 2.511,-2.171 4.411,-4.896 5.701,-8.176 h 0.024 c 1.221,-3.113 1.83,-6.622 1.825,-10.524 -0.006,-4.086 -0.822,-7.812 -2.45,-11.175 v 0.025 c -1.556,-3.281 -3.823,-6.106 -6.8,-8.475 h -0.025 c -2.846,-2.244 -6.246,-3.97 -10.199,-5.175 v -0.025 c -3.876,-1.153 -8.101,-1.728 -12.676,-1.725 -6.698,10e-4 -12.423,0.876 -17.175,2.625 -5.111,1.825 -9.728,4.834 -13.85,9.025 -0.389,0.398 -0.581,0.874 -0.575,1.424 0.005,0.549 0.205,1.015 0.6,1.401 l 8.45,8.349 c 0.401,0.386 0.876,0.578 1.425,0.576 0.544,10e-4 1.011,-0.192 1.4,-0.576 2.709,-2.716 5.709,-4.667 9,-5.849 l -0.025,0.025 c 3.086,-1.063 6.753,-1.596 11,-1.6 4.954,-0.003 8.812,0.98 11.575,2.95 v 0.025 c 1.223,0.897 2.148,1.997 2.775,3.3 0.635,1.341 0.952,2.85 0.951,4.524 10e-4,1.615 -0.224,3.056 -0.676,4.326 v -0.025 c -0.444,1.173 -1.094,2.14 -1.949,2.9 -0.015,0.016 -0.031,0.033 -0.051,0.049 -0.872,0.813 -1.838,1.421 -2.9,1.826 v 0.025 c -1.171,0.446 -2.904,0.838 -5.2,1.175 l -9.849,1.4 c -3.596,0.494 -6.821,1.362 -9.676,2.6 -2.849,1.224 -5.283,2.758 -7.3,4.599 l -0.024,0.026 c -4.485,4.17 -6.726,9.986 -6.726,17.45 10e-4,3.923 0.702,7.523 2.101,10.8 V 0.774 c 1.381,3.272 3.381,6.089 6,8.451 l 0.024,0.025 c 2.653,2.376 5.828,4.192 9.525,5.45 h 0.025 c 3.687,1.234 7.795,1.851 12.325,1.85 5.793,-0.003 10.834,-0.778 15.125,-2.325 m 231.775,1.625 c 0.556,0.004 1.032,-0.188 1.425,-0.576 0.387,-0.393 0.579,-0.869 0.575,-1.424 V 2.45 c 0.004,-0.556 -0.188,-1.031 -0.575,-1.426 -0.393,-0.386 -0.869,-0.578 -1.425,-0.574 h -21.049 v -70.301 c 0.003,-0.555 -0.189,-1.03 -0.576,-1.424 -0.394,-0.387 -0.869,-0.579 -1.424,-0.576 H -326.6 c -0.555,-0.003 -1.031,0.189 -1.424,0.576 -0.387,0.394 -0.58,0.869 -0.576,1.424 V 0.45 h -21.049 c -0.557,-0.004 -1.032,0.188 -1.425,0.574 -0.388,0.395 -0.579,0.87 -0.575,1.426 v 11.4 c -0.004,0.555 0.187,1.031 0.575,1.424 0.393,0.388 0.868,0.58 1.425,0.576 z m -73.4,0 c 0.557,0.004 1.031,-0.188 1.426,-0.576 0.386,-0.393 0.578,-0.869 0.574,-1.424 v -55.5 c -10e-4,-4.511 -0.817,-8.703 -2.449,-12.576 -1.579,-3.757 -3.855,-7.015 -6.825,-9.774 l -0.026,-0.025 c -2.921,-2.739 -6.321,-4.838 -10.2,-6.3 -3.917,-1.482 -8.117,-2.224 -12.6,-2.225 -4.482,10e-4 -8.682,0.743 -12.599,2.225 -3.893,1.465 -7.284,3.573 -10.176,6.325 -2.939,2.756 -5.197,6.015 -6.774,9.774 -1.632,3.873 -2.45,8.065 -2.451,12.576 v 55.5 c -0.004,0.555 0.189,1.031 0.576,1.424 0.393,0.388 0.869,0.58 1.424,0.576 h 12.701 c 0.555,0.004 1.03,-0.188 1.424,-0.576 0.387,-0.393 0.579,-0.869 0.576,-1.424 v -54.9 c -10e-4,-2.51 0.374,-4.794 1.125,-6.85 v -0.025 c 0.705,-1.929 1.729,-3.596 3.075,-5 1.301,-1.35 2.876,-2.384 4.724,-3.1 1.916,-0.746 4.041,-1.121 6.375,-1.125 2.336,0.003 4.478,0.378 6.425,1.125 1.85,0.718 3.442,1.752 4.776,3.1 l 0.024,0.025 c 1.333,1.399 2.35,3.057 3.051,4.975 v 0.025 c 0.75,2.056 1.125,4.34 1.125,6.85 v 54.9 c -0.004,0.555 0.187,1.031 0.574,1.424 0.395,0.388 0.869,0.58 1.426,0.576 z m -74.699,0 c 0.555,0.004 1.03,-0.188 1.425,-0.576 0.386,-0.393 0.578,-0.869 0.575,-1.424 V 2.45 c 0.003,-0.556 -0.189,-1.031 -0.575,-1.426 -0.395,-0.386 -0.87,-0.578 -1.425,-0.574 H -460 v -70.301 c 0.004,-0.555 -0.188,-1.03 -0.574,-1.424 -0.395,-0.387 -0.869,-0.579 -1.426,-0.576 h -12.699 c -0.557,-0.003 -1.031,0.189 -1.426,0.576 -0.387,0.394 -0.578,0.869 -0.574,1.424 V 0.45 h -21.051 c -0.556,-0.004 -1.031,0.188 -1.425,0.574 -0.387,0.395 -0.578,0.87 -0.575,1.426 v 11.4 c -0.003,0.555 0.188,1.031 0.575,1.424 0.394,0.388 0.869,0.58 1.425,0.576 z m 192.649,236.7 c -8.633,2.634 -17.633,5.783 -27,9.45 -10.099,3.934 -18.933,7.816 -26.5,11.649 -32.733,-20.132 -75.849,-31.882 -129.349,-35.25 l 46.299,30.401 c 29.367,6.066 57.05,16.366 83.05,30.9 15.167,-8.1 32.817,-15.433 52.95,-22 z m 92.351,-252.95 -0.026,0.025 c 1.698,-3.284 2.864,-6.851 3.5,-10.7 0.064,-0.387 0.014,-0.762 -0.15,-1.125 -0.156,-0.365 -0.397,-0.657 -0.725,-0.875 -0.335,-0.217 -0.701,-0.325 -1.099,-0.325 H -165.3 c -0.467,-0.004 -0.884,0.137 -1.25,0.424 -0.363,0.296 -0.596,0.671 -0.7,1.125 -0.953,4.159 -2.762,7.367 -5.425,9.625 h -0.024 c -2.697,2.251 -6.114,3.376 -10.25,3.375 -2.161,10e-4 -4.202,-0.398 -6.125,-1.199 l 0.024,0.025 c -1.866,-0.82 -3.457,-1.928 -4.774,-3.326 l -0.026,-0.024 c -0.914,-1.007 -1.63,-2.04 -2.15,-3.101 V -6.5 c -0.598,-1.194 -1.064,-2.61 -1.399,-4.25 l 0.024,0.024 c -0.352,-1.796 -0.61,-4.071 -0.774,-6.824 -0.133,-2.641 -0.2,-6.125 -0.201,-10.45 0.001,-4.312 0.068,-7.787 0.201,-10.425 0.163,-2.764 0.421,-5.048 0.774,-6.85 0.328,-1.694 0.786,-3.135 1.375,-4.326 v -0.024 c 0.52,-1.061 1.236,-2.094 2.15,-3.101 l 0.026,-0.024 c 1.303,-1.381 2.878,-2.447 4.724,-3.2 h 0.026 c 1.923,-0.801 3.964,-1.201 6.125,-1.2 2.477,-0.006 4.761,0.453 6.849,1.375 l 0.026,0.025 c 2.07,0.873 3.82,2.14 5.25,3.8 l 0.024,0.025 c 1.305,1.482 2.247,3.182 2.825,5.1 l 0.026,0.025 c 0.601,1.928 0.901,4.161 0.899,6.699 v 2.701 h -15.899 c -0.557,-0.003 -1.031,0.188 -1.426,0.575 -0.387,0.394 -0.578,0.869 -0.574,1.425 v 10.799 c -0.004,0.557 0.187,1.032 0.574,1.426 0.395,0.387 0.869,0.578 1.426,0.574 h 30.599 c 0.556,0.004 1.032,-0.187 1.425,-0.574 0.387,-0.394 0.579,-0.869 0.575,-1.426 V -37.4 c -0.003,-5.743 -0.602,-10.493 -1.799,-14.25 -1.256,-4.059 -3.357,-7.651 -6.3,-10.775 -6.374,-6.75 -14.541,-10.125 -24.5,-10.125 -4.567,0.003 -8.851,0.82 -12.851,2.449 -3.915,1.596 -7.44,3.955 -10.575,7.076 -2.161,2.17 -3.854,4.504 -5.074,7 l 0.024,-0.025 c -1.188,2.32 -2.072,4.961 -2.649,7.925 v 0.024 c -0.448,2.475 -0.739,5.517 -0.875,9.125 -0.068,2.049 -0.101,5.707 -0.101,10.976 0,5.268 0.033,8.926 0.101,10.975 0.136,3.643 0.427,6.701 0.875,9.174 v 0.026 c 0.577,2.964 1.461,5.605 2.649,7.925 l -0.024,-0.025 c 1.22,2.496 2.913,4.83 5.074,7 h 0.025 c 6.347,6.312 14.147,9.471 23.401,9.475 4.587,-0.001 8.803,-0.709 12.649,-2.125 h 0.026 c 3.635,-1.393 6.86,-3.393 9.674,-6 2.718,-2.459 4.935,-5.401 6.651,-8.825 m 8.625,-70.025 c -0.124,0.428 -0.108,0.853 0.05,1.275 l 30.7,83.7 c 0.141,0.392 0.384,0.709 0.724,0.95 0.348,0.237 0.732,0.354 1.151,0.35 h 10.25 c 0.418,0.004 0.802,-0.113 1.149,-0.35 0.342,-0.241 0.583,-0.558 0.726,-0.95 l 30.699,-83.7 c 0.157,-0.422 0.174,-0.847 0.051,-1.275 -0.128,-0.421 -0.369,-0.762 -0.726,-1.025 -0.357,-0.267 -0.757,-0.4 -1.2,-0.401 H -85.3 c -0.431,0.001 -0.823,0.126 -1.175,0.375 -0.346,0.247 -0.588,0.573 -0.724,0.976 l -5.301,15.45 h -30.149 l -5.3,-15.45 c -0.138,-0.403 -0.379,-0.729 -0.726,-0.976 -0.351,-0.249 -0.743,-0.374 -1.175,-0.375 h -13.549 c -0.444,0.001 -0.843,0.134 -1.201,0.401 -0.355,0.263 -0.597,0.604 -0.724,1.025 M -223.55,15.85 c 0.556,0.004 1.031,-0.188 1.425,-0.576 0.387,-0.393 0.579,-0.869 0.575,-1.424 V 2.45 c 0.004,-0.556 -0.188,-1.031 -0.575,-1.426 -0.394,-0.386 -0.869,-0.578 -1.425,-0.574 h -21.05 v -70.301 c 0.004,-0.555 -0.188,-1.03 -0.575,-1.424 -0.393,-0.387 -0.869,-0.579 -1.425,-0.576 h -12.7 c -0.555,-0.003 -1.031,0.189 -1.425,0.576 -0.386,0.394 -0.579,0.869 -0.575,1.424 V 0.45 h -21.05 c -0.555,-0.004 -1.031,0.188 -1.424,0.574 -0.387,0.395 -0.58,0.87 -0.576,1.426 v 11.4 c -0.004,0.555 0.189,1.031 0.576,1.424 0.393,0.388 0.869,0.58 1.424,0.576 z m 339.375,442.9 c -2.082,-0.149 -4.157,-0.299 -6.224,-0.45 -30.606,-2.385 -57.523,-5.185 -80.75,-8.401 -24.497,-3.39 -45.497,-7.333 -63,-11.824 l -65.026,-28.301 2.95,-66.524 c 5.307,0.943 10.807,1.86 16.5,2.75 23.106,3.643 49.872,6.918 80.3,9.825 h 0.026 c 12.055,1.095 24.322,2.136 36.799,3.125 86.008,6.866 181.966,11.349 287.875,13.449 0.122,0.006 0.247,0.006 0.375,0 5.063,-0.386 8.83,-1.786 11.3,-4.199 0.553,-0.512 0.937,-1.129 1.151,-1.85 0.861,-2.978 1.702,-5.937 2.524,-8.875 L 436.25,379.6 c 5.586,11.754 11.944,23.321 19.075,34.7 -3.325,17.094 -7.516,34.844 -12.575,53.25 -1.381,0.891 -3.239,1.458 -5.574,1.7 -119.639,-0.267 -226.755,-3.767 -321.351,-10.5 m 707.825,-852.3 v 10.8 l 9.951,7.3 h 10.049 v -71 h -10 l -0.049,60.25 z m -52,-7.85 v 5.95 c -0.233,7.167 -3.417,10.833 -9.549,11 -6.234,-0.167 -9.384,-3.833 -9.451,-11 v -5.95 c 0.034,-7.267 3.184,-10.951 9.451,-11.05 6.167,0.099 9.349,3.783 9.549,11.05 m 4.1,21.65 c 3.834,-3.634 5.801,-8.733 5.9,-15.3 v -31.65 c -0.099,-6.6 -2.083,-11.7 -5.95,-15.3 -3.7,-3.467 -8.3,-5.283 -13.8,-5.45 -4.7,0.133 -8.783,1.533 -12.25,4.2 -3.7,2.767 -6.033,6.7 -7,11.8 h 11 c 1.5,-4 4.383,-6 8.651,-6 6,0.033 9.116,3.8 9.349,11.3 v 6.95 c -4.7,-1.6 -9.066,-2.35 -13.099,-2.25 -4.434,-0.1 -8.2,1.5 -11.301,4.8 -3.166,3.167 -4.699,8.2 -4.6,15.1 v 6.6 c 0,6.566 2.034,11.65 6.1,15.25 3.7,3.5 8.167,5.25 13.4,5.25 5.3,0 9.833,-1.767 13.6,-5.3 m -85.149,4.3 h 10.049 v -71 h -10 l -0.049,60.25 -9.951,-7.35 v 10.8 z m -118.951,0 h 11 v -71 H 572.5 l -31.85,50.5 v -50.5 h -11 v 71 h 10 l 31.8,-50.45 h 0.2 z m 333,-9 c -3.033,0 -5.466,-0.967 -7.299,-2.901 -1.8,-1.966 -2.701,-4.682 -2.701,-8.149 v -30.851 c 0,-3.5 0.901,-6.216 2.701,-8.149 1.833,-1.967 4.266,-2.95 7.299,-2.95 2.967,0 5.368,0.983 7.201,2.95 1.866,1.933 2.799,4.649 2.799,8.149 v 30.851 c 0,3.467 -0.933,6.183 -2.799,8.149 -1.833,1.934 -4.234,2.901 -7.201,2.901 m -13.95,4.65 c 4.068,3.567 8.717,5.35 13.95,5.35 5.167,0 9.784,-1.783 13.85,-5.35 4.101,-3.6 6.15,-8.7 6.15,-15.301 V -426.8 c 0,-6.6 -2.049,-11.683 -6.15,-15.25 -4.066,-3.6 -8.683,-5.4 -13.85,-5.4 -5.233,0 -9.882,1.8 -13.95,5.4 -4.033,3.567 -6.05,8.65 -6.05,15.25 v 31.699 c 0,6.601 2.017,11.701 6.05,15.301 M 623.75,15.5 c 0.342,-0.241 0.583,-0.558 0.726,-0.95 l 30.7,-83.7 c 0.156,-0.422 0.173,-0.847 0.05,-1.275 -0.128,-0.421 -0.37,-0.762 -0.726,-1.025 -0.357,-0.267 -0.757,-0.4 -1.199,-0.401 H 639.75 c -0.432,0.001 -0.822,0.126 -1.175,0.375 -0.346,0.247 -0.588,0.573 -0.724,0.976 l -5.3,15.45 H 602.4 l -5.299,-15.45 c -0.138,-0.403 -0.379,-0.729 -0.726,-0.976 -0.352,-0.249 -0.743,-0.374 -1.175,-0.375 h -13.55 c -0.442,0.001 -0.842,0.134 -1.2,0.401 -0.355,0.263 -0.597,0.604 -0.724,1.025 -0.123,0.428 -0.107,0.853 0.049,1.275 l 30.701,83.7 c 0.141,0.392 0.383,0.709 0.724,0.95 0.349,0.237 0.732,0.354 1.151,0.35 h 10.25 c 0.419,0.004 0.801,-0.113 1.149,-0.35 m -16.225,-55.7 h 20.125 l -9.924,29.025 z m -23.299,55.474 c 0.386,-0.393 0.578,-0.869 0.575,-1.424 V 2.45 c 0.003,-0.556 -0.189,-1.031 -0.575,-1.426 -0.395,-0.386 -0.87,-0.578 -1.425,-0.574 H 561.75 v -70.301 c 0.004,-0.555 -0.187,-1.03 -0.574,-1.424 -0.395,-0.387 -0.869,-0.579 -1.426,-0.576 h -12.699 c -0.557,-0.003 -1.031,0.189 -1.426,0.576 -0.387,0.394 -0.578,0.869 -0.574,1.424 V 0.45 H 524 c -0.556,-0.004 -1.03,0.188 -1.425,0.574 -0.387,0.395 -0.578,0.87 -0.575,1.426 v 11.4 c -0.003,0.555 0.188,1.031 0.575,1.424 0.395,0.388 0.869,0.58 1.425,0.576 h 58.801 c 0.555,0.004 1.03,-0.188 1.425,-0.576 m 195.45,0 c 0.387,-0.393 0.578,-0.869 0.574,-1.424 V 2.45 C 780.254,1.894 780.063,1.419 779.676,1.024 779.281,0.638 778.807,0.446 778.25,0.45 h -21.1 v -70.301 c 0.004,-0.555 -0.188,-1.03 -0.575,-1.424 -0.393,-0.387 -0.869,-0.579 -1.425,-0.576 h -12.7 c -0.555,-0.003 -1.03,0.189 -1.425,0.576 -0.386,0.394 -0.578,0.869 -0.575,1.424 V 0.45 H 719.4 c -0.555,-0.004 -1.031,0.188 -1.424,0.574 -0.388,0.395 -0.58,0.87 -0.576,1.426 v 11.4 c -0.004,0.555 0.188,1.031 0.576,1.424 0.393,0.388 0.869,0.58 1.424,0.576 h 58.85 c 0.557,0.004 1.031,-0.188 1.426,-0.576 M 710.95,15.85 c 0.556,0.004 1.031,-0.188 1.425,-0.576 0.387,-0.393 0.579,-0.869 0.575,-1.424 V 2.45 C 712.954,1.894 712.762,1.419 712.375,1.024 711.981,0.638 711.506,0.446 710.95,0.45 h -21.099 v -70.301 c 0.003,-0.555 -0.189,-1.03 -0.576,-1.424 -0.394,-0.387 -0.869,-0.579 -1.424,-0.576 H 675.15 c -0.555,-0.003 -1.031,0.189 -1.424,0.576 -0.388,0.394 -0.58,0.869 -0.576,1.424 V 0.45 h -21.049 c -0.556,-0.004 -1.032,0.188 -1.425,0.574 -0.388,0.395 -0.579,0.87 -0.575,1.426 v 11.4 c -0.004,0.555 0.187,1.031 0.575,1.424 0.393,0.388 0.869,0.58 1.425,0.576 z m 22.75,250.049 c 29.667,-4 58.867,-4.715 87.601,-2.149 23.066,2.033 45.3,6.116 66.699,12.25 15.367,4.399 29.584,9.633 42.65,15.7 v -25.301 c -91.233,-39.5 -192.033,-42.599 -302.4,-9.299 -31.433,-11.4 -63.267,-19.367 -95.5,-23.9 -27.566,-3.867 -55.1,-5.167 -82.6,-3.9 -22.4,1.033 -44.283,3.75 -65.65,8.15 -16,3.267 -30.899,7.3 -44.699,12.1 l 9.899,22.5 c 95.068,-29.866 187.917,-22.684 278.55,21.55 35.268,-13.734 70.417,-22.967 105.45,-27.701 M 724.15,182.8 c 28.368,-3.6 57.583,-4.2 87.651,-1.8 23.866,1.866 47.699,5.566 71.5,11.1 16.699,3.9 32.482,8.45 47.349,13.65 V 152.6 C 827.184,114.8 726.334,115.899 628.101,155.899 527.033,113.967 424.601,111.399 320.801,148.2 216.101,111.399 113.217,113.967 12.15,155.899 -93.716,112.8 -200.483,114.033 -308.149,159.6 -384.683,127.467 -472.833,122.333 -572.6,144.2 l 65,42.699 c 30.867,-3.033 61.75,-2.983 92.651,0.151 37.133,3.8 73.55,11.983 109.25,24.55 C -200,165.2 -94.133,163.967 11.9,207.899 117.267,162.166 220.067,159.934 320.301,201.2 c 100.266,-41.266 202.949,-39.034 308.05,6.699 30.2,-12.5 62.132,-20.866 95.799,-25.099 M 910.4,13.925 c 3.43,-1.264 6.388,-3.088 8.875,-5.475 l 0.026,-0.025 c 2.464,-2.391 4.346,-5.199 5.649,-8.425 1.329,-3.265 1.995,-6.798 2,-10.601 -0.003,-6.225 -1.77,-11.525 -5.3,-15.899 -1.596,-2.009 -3.521,-3.726 -5.775,-5.15 h -0.024 c -1.486,-0.918 -3.061,-1.694 -4.726,-2.326 l 18.15,-34.949 c 0.217,-0.422 0.276,-0.864 0.175,-1.325 -0.097,-0.466 -0.331,-0.849 -0.7,-1.15 -0.363,-0.3 -0.78,-0.45 -1.25,-0.451 h -14.8 c -0.377,0 -0.727,0.101 -1.05,0.301 -0.326,0.197 -0.576,0.464 -0.75,0.8 l -17.099,34.2 H 881.15 v -33.301 c 0.004,-0.555 -0.188,-1.03 -0.575,-1.424 -0.393,-0.387 -0.869,-0.579 -1.425,-0.576 h -12.7 c -0.555,-0.003 -1.03,0.189 -1.425,0.576 -0.386,0.394 -0.578,0.869 -0.575,1.424 V 13.85 c -0.003,0.555 0.189,1.031 0.575,1.424 0.395,0.388 0.87,0.58 1.425,0.576 h 32.5 c 4.154,-10e-4 7.971,-0.643 11.45,-1.925 M 909.351,-5.9 v -0.025 c -0.545,1.317 -1.337,2.442 -2.375,3.375 -1.079,0.957 -2.354,1.691 -3.826,2.199 -1.568,0.532 -3.285,0.799 -5.15,0.801 h -16.85 v -22.2 H 898 c 1.865,0.002 3.582,0.269 5.15,0.8 h 0.026 c 1.462,0.48 2.728,1.196 3.8,2.15 1.038,0.933 1.83,2.058 2.375,3.375 v -0.025 c 0.567,1.411 0.85,2.995 0.849,4.75 0.003,1.759 -0.28,3.358 -0.849,4.8 M 849.65,13.85 V 2.45 C 849.654,1.894 849.462,1.419 849.075,1.024 848.682,0.638 848.206,0.446 847.65,0.45 H 808.801 V -20 h 32.849 c 0.556,0.004 1.032,-0.188 1.425,-0.575 0.387,-0.395 0.579,-0.869 0.575,-1.425 v -11.3 c 0.004,-0.556 -0.188,-1.031 -0.575,-1.426 -0.393,-0.386 -0.869,-0.578 -1.425,-0.574 h -32.849 v -21.15 h 38.849 c 0.556,0.004 1.032,-0.189 1.425,-0.575 0.387,-0.394 0.579,-0.87 0.575,-1.425 v -11.401 c 0.004,-0.555 -0.188,-1.03 -0.575,-1.424 -0.393,-0.387 -0.869,-0.579 -1.425,-0.576 h -53.549 c -0.556,-0.003 -1.032,0.189 -1.425,0.576 -0.388,0.394 -0.579,0.869 -0.575,1.424 V 13.85 c -0.004,0.555 0.187,1.031 0.575,1.424 0.393,0.388 0.869,0.58 1.425,0.576 h 53.549 c 0.556,0.004 1.032,-0.188 1.425,-0.576 0.387,-0.393 0.579,-0.869 0.575,-1.424 M 409.301,276.475 c 0.013,0.66 0.03,1.351 0.05,2.075 0.104,4.65 0.279,8.176 0.524,10.575 0.91,9.668 2.618,19.81 5.125,30.425 1.602,6.849 3.485,13.708 5.65,20.575 L 349.2,323.6 c 1.032,-4.528 2.008,-9.011 2.925,-13.451 0.217,-1.02 0.05,-1.978 -0.5,-2.875 -2.469,-4.041 -4.86,-8.182 -7.175,-12.424 -6.713,-12.288 -12.788,-25.422 -18.224,-39.4 -6.14,-15.902 -10.865,-31.336 -14.175,-46.301 l -8.7,-2.449 c 0.004,0.024 0.012,0.049 0.024,0.074 3.404,16.617 8.538,33.808 15.4,51.576 5.471,14.078 11.572,27.32 18.3,39.725 2.224,4.089 4.516,8.089 6.875,12 -3.538,16.934 -7.929,34.526 -13.175,52.775 -1.399,0.846 -3.283,1.363 -5.65,1.549 h -0.074 c -108.558,-2.157 -206.641,-6.816 -294.25,-13.974 -7.877,-0.649 -15.668,-1.316 -23.375,-2 -2.038,-0.183 -4.072,-0.366 -6.101,-0.55 -30.238,-2.894 -56.839,-6.151 -79.8,-9.775 -6.013,-0.94 -11.813,-1.907 -17.4,-2.9 -9.716,-1.749 -18.783,-3.59 -27.199,-5.525 -6.232,-1.432 -12.107,-2.915 -17.625,-4.45 L -204.6,296 l 5.75,-100.05 c -11.933,1.633 -21.016,3.033 -27.25,4.199 v 0.226 l -0.875,0.149 -5.325,88.776 c -0.045,0.825 0.148,1.592 0.575,2.3 0.421,0.704 1.005,1.229 1.75,1.575 l 86.25,39.45 c 0.198,0.089 0.398,0.164 0.6,0.225 6.098,1.704 12.631,3.345 19.601,4.924 l -3.675,65.701 c -0.045,0.831 0.155,1.606 0.599,2.325 0.44,0.716 1.04,1.24 1.8,1.575 l 87.7,38.149 c 0.195,0.081 0.395,0.148 0.6,0.201 17.824,4.597 39.241,8.622 64.25,12.075 23.373,3.252 50.456,6.085 81.25,8.5 96.321,7.036 205.755,10.686 328.301,10.95 0.123,-0.003 0.248,-0.012 0.375,-0.025 5.091,-0.465 8.865,-1.94 11.324,-4.425 0.538,-0.512 0.905,-1.12 1.101,-1.825 0.9,-3.258 1.775,-6.5 2.625,-9.725 L 932.75,572.3 C 921.717,557.833 911.101,543.434 900.9,529.1 L 460.825,427.274 c 0.942,-4.378 1.824,-8.72 2.651,-13.024 0.2,-1.031 0.016,-1.998 -0.55,-2.9 -6.127,-9.672 -11.677,-19.481 -16.651,-29.425 L 866.95,479.25 C 857.817,465.217 849.067,451.233 840.7,437.3 L 429.75,342.225 c -2.73,-8.166 -5.047,-16.326 -6.949,-24.475 v -0.025 c -2.427,-10.242 -4.086,-20.025 -4.976,-29.35 v -0.025 c -0.221,-2.267 -0.38,-5.6 -0.474,-10 -0.031,-1.131 -0.056,-2.19 -0.076,-3.175 l -6.049,1 c -0.644,0.098 -1.286,0.198 -1.925,0.3"/></g><g transform="translate(854.1504,428.5625)" id="g24"><path id="path26" style="fill:#ff0000;fill-opacity:1;fill-rule:evenodd;stroke:none" d="m 0,0 h -88.5 v -44.75 h 75.35 V -78 H -88.5 v -46.399 H 0 v -33.25 H -125.801 V 33.3 H 0 Z m 156.899,16 c 5.3,-5.3 9.368,-11.5 12.201,-18.6 2.799,-7.066 4.2,-14.6 4.2,-22.6 0,-6.466 -0.95,-12.533 -2.851,-18.199 -1.766,-5.268 -4.316,-10.068 -7.649,-14.401 -3.134,-4.066 -6.851,-7.617 -11.151,-10.65 -4.033,-2.866 -8.45,-5.166 -13.25,-6.9 l 42.651,-82.299 H 137.899 L 100.6,-81.5 H 73.75 v -76.149 H 36.5 V 33.3 h 74.8 c 9.5,0 18.2,-1.55 26.099,-4.65 7.534,-2.933 14.034,-7.15 19.5,-12.65 M 120.05,-1.85 C 116.649,-0.616 112.933,0 108.899,0 H 73.75 v -50.399 h 35.149 c 4.034,0 7.75,0.616 11.151,1.849 3.3,1.234 6.149,2.984 8.55,5.25 2.366,2.234 4.183,4.884 5.45,7.95 1.3,3.133 1.95,6.517 1.95,10.15 0,3.667 -0.65,7.067 -1.95,10.2 -1.267,3.066 -3.084,5.717 -5.45,7.95 -2.401,2.267 -5.25,4 -8.55,5.2 M 337.5,0.4 c 4.1,-7.633 6.949,-16.25 8.55,-25.85 h -37.851 c -2.099,8.534 -5.717,15.1 -10.849,19.7 -5.534,4.934 -12.651,7.4 -21.35,7.4 -10.334,0 -18.283,-3.316 -23.851,-9.95 -2.066,-2.167 -3.649,-4.4 -4.75,-6.7 -1.266,-2.566 -2.216,-5.733 -2.849,-9.5 -0.667,-3.767 -1.151,-8.7 -1.45,-14.8 -0.234,-5.634 -0.35,-13.266 -0.35,-22.9 0,-9.633 0.116,-17.25 0.35,-22.85 0.299,-6.133 0.783,-11.083 1.45,-14.849 0.633,-3.768 1.583,-6.917 2.849,-9.451 1.101,-2.299 2.684,-4.549 4.75,-6.75 5.568,-6.6 13.517,-9.9 23.851,-9.9 8.699,0 15.816,2.467 21.35,7.4 5.132,4.567 8.75,11.117 10.849,19.65 h 37.851 c -1.601,-9.567 -4.467,-18.166 -8.601,-25.8 -4,-7.433 -9.099,-13.75 -15.3,-18.95 -6.099,-5.1 -13.083,-8.967 -20.95,-11.6 -7.866,-2.667 -16.349,-4 -25.449,-4 -20.4,0 -37.567,6.984 -51.5,20.95 -8.2,8.167 -13.384,17.734 -15.551,28.701 -2.166,10.732 -3.25,26.549 -3.25,47.449 0,20.9 1.084,36.733 3.25,47.5 1.068,5.467 2.884,10.584 5.45,15.35 2.568,4.734 5.934,9.166 10.101,13.3 13.933,13.967 31.1,20.95 51.5,20.95 9.166,0 17.699,-1.316 25.6,-3.95 7.833,-2.634 14.799,-6.516 20.9,-11.65 C 328.416,14.134 333.5,7.834 337.5,0.4 M -584.75,0 h -35.15 v -50.399 h 35.15 c 4.033,0 7.75,0.616 11.149,1.849 3.3,1.234 6.151,2.984 8.55,5.25 2.367,2.234 4.184,4.884 5.45,7.95 1.3,3.133 1.951,6.517 1.951,10.15 0,3.667 -0.651,7.067 -1.951,10.2 -1.266,3.066 -3.083,5.717 -5.45,7.95 -2.399,2.267 -5.25,4 -8.55,5.2 C -577,-0.616 -580.717,0 -584.75,0 m 61.55,-43.399 c -1.767,-5.268 -4.317,-10.068 -7.651,-14.401 -3.099,-4.066 -6.799,-7.617 -11.099,-10.65 -4.067,-2.866 -8.5,-5.166 -13.3,-6.9 l 42.649,-82.299 h -43.149 l -37.3,76.149 h -26.85 v -76.149 h -37.25 V 33.3 h 74.799 c 9.5,0 18.201,-1.55 26.101,-4.65 7.533,-2.966 14.033,-7.183 19.5,-12.65 5.3,-5.3 9.366,-11.5 12.199,-18.6 2.801,-7.066 4.2,-14.6 4.2,-22.6 0,-6.466 -0.95,-12.533 -2.849,-18.199 M -447.4,33.3 V -90.899 c 0,-5.434 0.766,-10.351 2.299,-14.75 1.534,-4.301 3.75,-7.984 6.651,-11.051 2.866,-3.033 6.333,-5.333 10.399,-6.9 4.101,-1.6 8.651,-2.4 13.651,-2.4 5,0 9.549,0.8 13.65,2.4 4.1,1.567 7.6,3.867 10.5,6.9 2.933,3.067 5.183,6.75 6.75,11.051 1.566,4.399 2.35,9.316 2.35,14.75 V 33.3 h 37 V -92.25 c 0,-9.899 -1.817,-19.083 -5.451,-27.55 -3.5,-8.099 -8.5,-15.15 -15,-21.15 -6.366,-5.866 -13.799,-10.383 -22.299,-13.55 -8.6,-3.2 -17.767,-4.8 -27.5,-4.8 -9.734,0 -18.901,1.6 -27.5,4.8 -8.534,3.167 -15.984,7.684 -22.35,13.55 -6.5,6 -11.5,13.051 -15,21.15 -3.634,8.467 -5.45,17.651 -5.45,27.55 V 33.3 Z m 213.799,0 c 10.201,0 19.5,-1.466 27.901,-4.4 8.866,-3.1 16.366,-7.716 22.5,-13.85 5.099,-5.1 9.133,-10.75 12.099,-16.949 2.601,-5.5 4.467,-11.684 5.601,-18.551 0.933,-5.5 1.466,-12.133 1.6,-19.9 0.066,-2.733 0.083,-6.2 0.049,-10.4 V -72.1 c 0.034,-4.233 0.017,-7.75 -0.049,-10.549 -0.134,-7.967 -0.667,-14.784 -1.6,-20.451 -1.134,-7.133 -3,-13.5 -5.601,-19.1 -2.966,-6.4 -7,-12.15 -12.099,-17.25 -6.134,-6.133 -13.634,-10.733 -22.5,-13.8 -8.401,-2.933 -17.7,-4.399 -27.901,-4.399 h -68.95 V 33.3 Z m -3.5,-33.3 h -28.2 v -124.399 h 28.2 c 6.3,0 11.75,0.982 16.351,2.949 4.399,1.933 8.25,4.884 11.55,8.85 1.733,2.133 3.133,4.65 4.2,7.55 1.033,2.867 1.85,6.333 2.449,10.401 0.534,3.833 0.901,8.583 1.101,14.25 0.2,4.833 0.3,11.166 0.3,19 0,7.833 -0.1,14.099 -0.3,18.799 -0.2,5.467 -0.567,10.017 -1.101,13.65 -0.599,3.867 -1.416,7.167 -2.449,9.9 -1.067,2.7 -2.467,5.134 -4.2,7.3 -3.3,3.967 -7.151,6.9 -11.55,8.8 -4.601,1.967 -10.051,2.95 -16.351,2.95 M 32.024,618.9 C 10.572,592.259 -15.569,558.992 -46.4,519.101 c -12.478,-0.99 -24.745,-2.031 -36.8,-3.125 h -0.026 c -30.427,-2.908 -57.194,-6.183 -80.299,-9.826 -5.694,-0.889 -11.194,-1.806 -16.5,-2.75 l -2.951,66.525 65.026,28.301 c 17.503,4.491 38.503,8.433 63,11.824 23.227,3.216 50.144,6.015 80.75,8.4 2.067,0.152 4.142,0.301 6.224,0.45 M 502.149,-157.649 H 378.199 V 33.3 H 415.5 v -157.699 h 86.649 z M 666.85,33.3 V -92.25 c 0,-9.899 -1.833,-19.083 -5.5,-27.55 -3.5,-8.099 -8.484,-15.15 -14.951,-21.15 -6.399,-5.866 -13.849,-10.383 -22.349,-13.55 -8.601,-3.2 -17.767,-4.8 -27.5,-4.8 -9.734,0 -18.901,1.6 -27.5,4.8 -8.5,3.167 -15.95,7.684 -22.351,13.55 -6.467,6 -11.449,13.051 -14.949,21.15 -3.667,8.467 -5.5,17.651 -5.5,27.55 V 33.3 h 37.3 V -90.899 c 0,-5.434 0.783,-10.351 2.349,-14.75 1.5,-4.301 3.701,-7.984 6.601,-11.051 2.899,-3.033 6.366,-5.333 10.399,-6.9 4.101,-1.6 8.651,-2.4 13.651,-2.4 5,0 9.566,0.8 13.7,2.4 4.066,1.567 7.566,3.867 10.5,6.9 2.933,3.067 5.166,6.75 6.699,11.051 1.568,4.399 2.351,9.316 2.351,14.75 V 33.3 Z M 784.6,-77.5 h -38.901 v -46.899 H 784.6 c 4.099,0 7.766,0.616 11,1.849 3.066,1.2 5.667,2.901 7.799,5.1 2.034,2.134 3.568,4.634 4.601,7.5 1.033,2.834 1.55,5.884 1.55,9.15 0,3.267 -0.517,6.283 -1.55,9.05 -1.033,2.867 -2.567,5.351 -4.601,7.45 -2.132,2.167 -4.733,3.833 -7.799,5 -3.234,1.2 -6.901,1.8 -11,1.8 m 55.549,79.351 c 2.667,-6.667 4,-14.068 4,-22.201 0,-5.033 -0.783,-9.85 -2.349,-14.45 -1.367,-4.099 -3.318,-7.933 -5.851,-11.5 -2.199,-3.133 -4.75,-5.917 -7.649,-8.349 -2.568,-2.201 -5.151,-3.917 -7.75,-5.151 3.233,-1.5 6.217,-3.283 8.95,-5.349 3.3,-2.5 6.133,-5.351 8.5,-8.551 5.899,-7.866 8.85,-17.533 8.85,-29 0,-8.733 -1.451,-16.616 -4.35,-23.65 -2.801,-6.733 -6.851,-12.466 -12.15,-17.2 -5.167,-4.633 -11.333,-8.15 -18.5,-10.55 -7.133,-2.367 -14.967,-3.549 -23.5,-3.549 H 708.399 V 33.3 H 785.1 c 9.233,0 17.549,-1.267 24.95,-3.8 7.266,-2.467 13.45,-6.05 18.55,-10.75 5.066,-4.7 8.917,-10.333 11.549,-16.899 M 782.149,0 h -36.45 v -43.95 h 36.45 c 3.901,0 7.417,0.534 10.55,1.6 3.033,1 5.617,2.484 7.75,4.451 2.101,1.932 3.684,4.25 4.75,6.949 1.101,2.7 1.651,5.7 1.651,9 0,3.266 -0.55,6.25 -1.651,8.95 -1.066,2.7 -2.649,5.017 -4.75,6.95 -2.133,1.967 -4.717,3.467 -7.75,4.5 C 789.566,-0.517 786.05,0 782.149,0 M -76.375,508.575 c -14.204,-18.298 -30.513,-39.69 -48.926,-64.175 -11.803,-15.678 -24.47,-32.628 -38,-50.85 l 1.151,-0.574 -0.25,-0.326 51.9,-26.049 c -29.134,-8.368 -59.601,-13.201 -91.4,-14.5 -26.401,-1.101 -53.317,0.233 -80.75,4 l -5.75,100.049 63.9,29.225 c 5.519,1.535 11.394,3.019 17.625,4.45 8.416,1.936 17.483,3.777 27.199,5.526 5.587,0.993 11.387,1.96 17.401,2.899 22.961,3.624 49.561,6.882 79.799,9.775 2.03,0.184 4.063,0.368 6.101,0.55"/></g><g transform="translate(807.75,947.6631)" id="g28"><path id="path30" style="fill:#ffffff;fill-opacity:1;fill-rule:evenodd;stroke:none" d="m 0,0 c 30.831,39.892 56.973,73.158 78.425,99.8 94.596,6.733 201.712,10.233 321.35,10.5 2.335,-0.242 4.194,-0.809 5.575,-1.7 5.058,-18.407 9.25,-36.157 12.575,-53.25 C 410.794,43.971 404.436,32.404 398.85,20.649 L 303.225,-1.476 c -0.823,2.939 -1.663,5.898 -2.525,8.875 -0.214,0.722 -0.597,1.338 -1.15,1.851 -2.47,2.413 -6.237,3.813 -11.3,4.199 -0.128,0.006 -0.253,0.006 -0.375,0 C 181.966,11.349 86.008,6.866 0,0 m 265.975,-152.176 c -96.177,-33.825 -193.335,-29.45 -291.475,13.125 -12.4,-5.133 -25.116,-9.583 -38.15,-13.349 l -52.1,26.275 -1.15,0.574 c 13.53,18.223 26.196,35.172 38,50.851 18.413,24.484 34.721,45.877 48.925,64.175 7.707,0.684 15.498,1.351 23.375,2 87.61,7.158 185.693,11.817 294.25,13.974 h 0.075 c 2.367,-0.186 4.251,-0.703 5.65,-1.55 5.245,-18.249 9.637,-35.84 13.175,-52.774 -2.36,-3.911 -4.652,-7.911 -6.875,-12 -6.729,-12.405 -12.829,-25.647 -18.3,-39.726 -6.862,-17.767 -11.996,-34.959 -15.4,-51.575 m 41.075,88.075 c 2.314,4.243 4.706,8.384 7.175,12.425 0.549,0.897 0.716,1.855 0.5,2.875 -0.917,4.44 -1.893,8.923 -2.925,13.45 l 71.45,16.526 c -2.165,-6.867 -4.049,-13.726 -5.65,-20.575 -2.507,-10.616 -4.215,-20.757 -5.125,-30.425 -0.246,-2.4 -0.42,-5.925 -0.525,-10.575 -0.019,-0.724 -0.036,-1.415 -0.05,-2.076 -22.564,3.574 -44.181,9.699 -64.85,18.375"/></g></g></g></g></svg>
